<svg width="165" height="79" viewBox="0 0 165 79" fill="none" xmlns="http://www.w3.org/2000/svg">
<path d="M43.4157 9.43713C41.8863 15.4521 34.7117 25.4559 18.2484 17.3511C20.6385 18.948 24.0725 23.59 18.6875 29.383C17.8338 30.8391 14.8844 33.7968 9.91637 33.9781" stroke="#E06B10" stroke-width="2" stroke-linecap="round" stroke-linejoin="round"/>
<path d="M45.1494 19.6729C47.4754 15.9607 50.2535 7.24441 42.7585 2.07692C39.237 1.42814 31.6227 1.51167 29.3369 7.03607M32.1671 10.0419C31.1425 8.58952 27.5422 5.78018 21.3379 6.16204C18.2859 7.3426 12.7207 10.9224 11.7925 16.6151M11.714 19.3384C11.6179 18.3831 11.6523 17.475 11.7925 16.6151M11.7925 16.6151C9.73035 16.7551 5.32524 17.8615 4.20221 21.1671C3.09921 22.8915 1.63857 27.5955 4.62002 32.6168C6.05636 34.7019 10.2832 38.7061 15.7 38.0421M41.4439 13.9785C42.672 15.6826 45.1579 19.9058 45.2769 23.166M13.935 32.2769C15.2939 35.7899 18.3667 42.9583 19.7866 43.5283" stroke="#E06B10" stroke-width="2" stroke-linecap="round" stroke-linejoin="round"/>
<path d="M44.229 78.4342C36.4982 78.4342 30.3575 76.0611 25.8071 71.315C21.3055 66.5199 19.0548 59.7187 19.0548 50.9114C19.0548 42.2019 21.2321 35.4496 25.5869 30.6545C29.9905 25.8105 36.1312 23.3885 44.0089 23.3885C47.6296 23.3885 50.6633 23.6087 53.1098 24.049C54.2841 24.2447 55.2627 24.8319 56.0455 25.8105C56.8284 26.7891 57.2198 27.89 57.2198 29.1132V29.7004C57.2198 30.7279 56.7795 31.5352 55.8987 32.1224C55.0669 32.7096 54.1617 32.8808 53.1831 32.6362C50.7856 32.0001 48.0945 31.682 45.1098 31.682C40.2657 31.682 36.4492 33.3456 33.6603 36.6728C30.9202 40.0001 29.5502 44.7462 29.5502 50.9114C29.5502 57.0275 30.9691 61.7737 33.807 65.1499C36.6939 68.4771 40.5349 70.1407 45.33 70.1407C48.5593 70.1407 51.3238 69.8471 53.6235 69.2599C54.6021 69.0153 55.5073 69.1865 56.3391 69.7737C57.2198 70.3609 57.6602 71.1682 57.6602 72.1957V72.7095C57.6602 73.9327 57.2688 75.0336 56.4859 76.0122C55.752 76.9419 54.7734 77.5046 53.5501 77.7003C50.7611 78.1896 47.6541 78.4342 44.229 78.4342Z" fill="#E06B10"/>
<path d="M67.4796 77.7003C66.3542 77.7003 65.3756 77.2844 64.5438 76.4526C63.7609 75.6208 63.3695 74.6422 63.3695 73.5168V26.838C63.3695 25.7126 63.7609 24.734 64.5438 23.9022C65.3756 23.0704 66.3542 22.6545 67.4796 22.6545H68.9475C70.0728 22.6545 71.0514 23.0704 71.8832 23.9022C72.715 24.734 73.1309 25.7126 73.1309 26.838V43.8655C73.1309 43.9144 73.1554 43.9389 73.2043 43.9389C73.2533 43.9389 73.3022 43.9144 73.3511 43.8655C76.7762 40.4894 80.5438 38.8013 84.6538 38.8013C89.1064 38.8013 92.3358 40.0735 94.3419 42.6178C96.348 45.1621 97.3511 49.5169 97.3511 55.682V73.5168C97.3511 74.6422 96.9352 75.6208 96.1034 76.4526C95.2716 77.2844 94.293 77.7003 93.1676 77.7003H91.9933C90.8679 77.7003 89.8893 77.2844 89.0575 76.4526C88.2257 75.6208 87.8098 74.6422 87.8098 73.5168V57.1499C87.8098 52.893 87.345 50.0795 86.4153 48.7095C85.5346 47.3395 83.8465 46.6545 81.3511 46.6545C79.3939 46.6545 77.5346 47.5352 75.7731 49.2967C74.0117 51.0581 73.1309 52.9419 73.1309 54.948V73.5168C73.1309 74.6422 72.715 75.6208 71.8832 76.4526C71.0514 77.2844 70.0728 77.7003 68.9475 77.7003H67.4796Z" fill="#E06B10"/>
<path d="M117.504 45.627C115.009 45.627 113.076 46.3364 111.706 47.7554C110.385 49.1254 109.553 51.3517 109.211 54.4343C109.211 54.8257 109.406 55.0214 109.798 55.0214H124.183C124.574 55.0214 124.77 54.8257 124.77 54.4343C124.574 48.5627 122.152 45.627 117.504 45.627ZM119.339 78.4342C112.929 78.4342 107.987 76.7706 104.513 73.4434C101.088 70.0673 99.3757 65.1254 99.3757 58.6178C99.3757 52.1591 100.917 47.2416 104 43.8655C107.082 40.4894 111.535 38.8013 117.357 38.8013C128.22 38.8013 133.798 44.9664 134.091 57.2967C134.14 58.471 133.724 59.4496 132.844 60.2324C131.963 61.0153 130.935 61.4067 129.761 61.4067H109.724C109.284 61.4067 109.113 61.6269 109.211 62.0673C109.553 65.3456 110.63 67.7431 112.44 69.2599C114.299 70.7278 116.99 71.4618 120.513 71.4618C122.715 71.4618 125.162 71.0948 127.853 70.3609C128.733 70.1162 129.541 70.263 130.275 70.8012C131.058 71.3394 131.449 72.0734 131.449 73.0031C131.449 74.1284 131.107 75.1315 130.422 76.0122C129.785 76.844 128.929 77.3578 127.853 77.5535C125.113 78.1407 122.275 78.4342 119.339 78.4342Z" fill="#E06B10"/>
<path d="M138.211 48.1224C137.232 48.1224 136.401 47.7799 135.716 47.0948C135.031 46.3609 134.688 45.5046 134.688 44.526C134.688 43.5475 135.031 42.7156 135.716 42.0306C136.401 41.3456 137.232 41.0031 138.211 41.0031H142.101C142.541 41.0031 142.762 40.7829 142.762 40.3426V38.5811C142.762 33.2967 143.911 29.4557 146.211 27.0582C148.511 24.6117 152.156 23.3885 157.147 23.3885C158.81 23.3885 160.254 23.4863 161.477 23.682C162.505 23.8288 163.336 24.3426 163.972 25.2233C164.658 26.0551 165 27.0093 165 28.0857C165 28.9664 164.633 29.6759 163.899 30.2141C163.165 30.7034 162.358 30.8747 161.477 30.7279C160.498 30.63 159.789 30.5811 159.349 30.5811C156.853 30.5811 155.141 31.1193 154.211 32.1958C153.33 33.2233 152.89 35.2539 152.89 38.2875V40.3426C152.89 40.7829 153.11 41.0031 153.55 41.0031H160.743C161.722 41.0031 162.554 41.3456 163.239 42.0306C163.924 42.7156 164.266 43.5475 164.266 44.526C164.266 45.5046 163.924 46.3609 163.239 47.0948C162.554 47.7799 161.722 48.1224 160.743 48.1224H153.55C153.11 48.1224 152.89 48.3181 152.89 48.7095V73.5168C152.89 74.6422 152.474 75.6208 151.642 76.4526C150.81 77.2844 149.832 77.7003 148.706 77.7003H146.872C145.746 77.7003 144.768 77.2844 143.936 76.4526C143.153 75.6208 142.762 74.6422 142.762 73.5168V48.7095C142.762 48.3181 142.541 48.1224 142.101 48.1224H138.211Z" fill="#E06B10"/>
<path d="M82.9415 29.055C81.3023 28.5838 80.1077 28.0064 79.3578 27.3229C78.6145 26.6327 78.2428 25.7832 78.2428 24.7744C78.2428 23.633 78.6974 22.6906 79.6066 21.9473C80.5225 21.1974 81.7104 20.8224 83.1704 20.8224C84.1659 20.8224 85.0519 21.0149 85.8283 21.3998C86.6115 21.7847 87.2154 22.3156 87.6401 22.9925C88.0715 23.6695 88.2872 24.4094 88.2872 25.2125H86.3659C86.3659 24.3364 86.0872 23.6496 85.5297 23.1518C84.9722 22.6474 84.1858 22.3953 83.1704 22.3953C82.228 22.3953 81.4914 22.6043 80.9605 23.0224C80.4362 23.4339 80.1741 24.0079 80.1741 24.7446C80.1741 25.3352 80.4229 25.8363 80.9207 26.2477C81.425 26.6526 82.2778 27.0242 83.479 27.3627C84.6869 27.7011 85.6293 28.0761 86.3062 28.4876C86.9897 28.8924 87.4941 29.3669 87.8193 29.9111C88.1511 30.4553 88.317 31.0957 88.317 31.8324C88.317 33.007 87.8591 33.9494 86.9433 34.6595C86.0274 35.363 84.803 35.7147 83.27 35.7147C82.2745 35.7147 81.3454 35.5256 80.4826 35.1473C79.6199 34.7624 78.9529 34.2381 78.4817 33.5744C78.0172 32.9108 77.7849 32.1575 77.7849 31.3147H79.7062C79.7062 32.1907 80.028 32.8842 80.6718 33.3953C81.3222 33.8996 82.1882 34.1518 83.27 34.1518C84.2787 34.1518 85.0519 33.9461 85.5894 33.5346C86.127 33.1232 86.3958 32.5624 86.3958 31.8523C86.3958 31.1422 86.1469 30.5947 85.6492 30.2097C85.1514 29.8182 84.2489 29.4333 82.9415 29.055Z" fill="black"/>
<path d="M94.9568 35.7147C93.4968 35.7147 92.3089 35.2369 91.393 34.2812C90.4772 33.3189 90.0193 32.0348 90.0193 30.4287V30.0903C90.0193 29.0218 90.2217 28.0695 90.6265 27.2333C91.038 26.3904 91.6087 25.7334 92.3387 25.2622C93.0754 24.7844 93.8718 24.5455 94.7279 24.5455C96.1282 24.5455 97.2166 25.0067 97.993 25.9292C98.7695 26.8517 99.1577 28.1723 99.1577 29.8912V30.6577H91.8609C91.8875 31.7195 92.1961 32.579 92.7867 33.236C93.384 33.8864 94.1406 34.2115 95.0564 34.2115C95.7068 34.2115 96.2576 34.0788 96.7089 33.8134C97.1602 33.5479 97.555 33.1962 97.8935 32.7582L99.0184 33.6342C98.1158 35.0212 96.762 35.7147 94.9568 35.7147ZM94.7279 26.0586C93.9846 26.0586 93.3608 26.3307 92.8564 26.8749C92.352 27.4125 92.0401 28.169 91.9206 29.1446H97.3161V29.0052C97.263 28.0695 97.0108 27.3461 96.5596 26.8351C96.1083 26.3174 95.4977 26.0586 94.7279 26.0586Z" fill="black"/>
<path d="M107.948 35.5156C107.842 35.3032 107.755 34.925 107.689 34.3808C106.833 35.2701 105.811 35.7147 104.623 35.7147C103.561 35.7147 102.688 35.4161 102.005 34.8188C101.328 34.2149 100.989 33.4517 100.989 32.5292C100.989 31.4076 101.414 30.5382 102.264 29.921C103.12 29.2972 104.321 28.9853 105.867 28.9853H107.659V28.1392C107.659 27.4954 107.467 26.9844 107.082 26.6061C106.697 26.2212 106.129 26.0287 105.379 26.0287C104.722 26.0287 104.172 26.1947 103.727 26.5265C103.282 26.8583 103.06 27.2598 103.06 27.731H101.208C101.208 27.1934 101.398 26.6758 101.776 26.1781C102.161 25.6737 102.678 25.2755 103.329 24.9835C103.986 24.6915 104.706 24.5455 105.489 24.5455C106.73 24.5455 107.702 24.8574 108.406 25.4812C109.109 26.0984 109.474 26.9512 109.501 28.0396V32.9971C109.501 33.9859 109.627 34.7723 109.879 35.3563V35.5156H107.948ZM104.892 34.112C105.469 34.112 106.017 33.9627 106.534 33.664C107.052 33.3654 107.427 32.9772 107.659 32.4993V30.2894H106.216C103.959 30.2894 102.831 30.9497 102.831 32.2704C102.831 32.8477 103.024 33.299 103.408 33.6242C103.793 33.9494 104.288 34.112 104.892 34.112Z" fill="black"/>
<path d="M117.594 26.3971C117.315 26.3506 117.013 26.3274 116.688 26.3274C115.48 26.3274 114.661 26.8417 114.229 27.8704V35.5156H112.388V24.7446H114.179L114.209 25.9889C114.813 25.0266 115.669 24.5455 116.778 24.5455C117.136 24.5455 117.408 24.5919 117.594 24.6849V26.3971Z" fill="black"/>
<path d="M123.417 34.2115C124.074 34.2115 124.649 34.0125 125.14 33.6143C125.631 33.2161 125.903 32.7183 125.956 32.121H127.698C127.665 32.7382 127.452 33.3256 127.061 33.883C126.669 34.4405 126.145 34.8851 125.488 35.217C124.838 35.5488 124.147 35.7147 123.417 35.7147C121.951 35.7147 120.783 35.2269 119.913 34.2514C119.051 33.2692 118.619 31.9286 118.619 30.2296V29.921C118.619 28.8725 118.812 27.9401 119.197 27.1238C119.582 26.3075 120.132 25.6737 120.849 25.2224C121.573 24.7711 122.425 24.5455 123.408 24.5455C124.615 24.5455 125.617 24.9072 126.414 25.6306C127.217 26.3539 127.645 27.293 127.698 28.4477H125.956C125.903 27.7509 125.637 27.1802 125.16 26.7355C124.688 26.2842 124.104 26.0586 123.408 26.0586C122.472 26.0586 121.745 26.3971 121.227 27.074C120.716 27.7443 120.461 28.7165 120.461 29.9907V30.3391C120.461 31.5802 120.716 32.5358 121.227 33.2061C121.738 33.8764 122.468 34.2115 123.417 34.2115Z" fill="black"/>
<path d="M131.61 26.0487C132.427 25.0465 133.488 24.5455 134.796 24.5455C137.072 24.5455 138.22 25.8296 138.24 28.398V35.5156H136.398V28.388C136.392 27.6115 136.213 27.0375 135.861 26.6658C135.516 26.2942 134.975 26.1084 134.238 26.1084C133.641 26.1084 133.117 26.2677 132.665 26.5862C132.214 26.9048 131.862 27.3229 131.61 27.8405V35.5156H129.769V20.2251H131.61V26.0487Z" fill="black"/>
</svg>
